<svg version="1.1" id="Layer_1" xmlns="http://www.w3.org/2000/svg" xmlns:xlink="http://www.w3.org/1999/xlink" x="0px" y="0px"
	 width="100%" viewBox="0 0 225 225" enable-background="new 0 0 225 225" xml:space="preserve">
<path fill="#D92E28" opacity="1.000000" stroke="none" 
	d="
M226.000000,103.000000 
	C226.000000,103.750000 226.000000,104.500000 225.694122,105.773773 
	C225.306137,107.182518 225.224030,108.067490 225.079605,109.403114 
	C225.064194,112.589729 225.111115,115.325684 225.113876,118.428650 
	C225.379807,119.863770 225.689911,120.931885 226.000000,122.000000 
	C226.000000,122.444443 226.000000,122.888893 225.637283,123.848824 
	C218.752731,172.166870 193.015991,204.520355 147.405899,220.589996 
	C140.196808,223.129959 132.481339,224.232742 125.000000,226.000000 
	C117.645744,226.000000 110.291496,226.000000 102.273628,225.645996 
	C56.539642,220.673401 18.548063,188.916443 5.918131,145.045502 
	C3.839026,137.823593 2.617732,130.354736 0.999999,123.000000 
	C1.000000,122.555557 1.000000,122.111107 1.306212,121.183983 
	C1.690594,119.814941 1.768765,118.928574 1.904748,117.596344 
	C1.924700,114.753593 1.886840,112.356720 1.896898,109.620956 
	C1.629877,108.521385 1.314938,107.760696 1.000000,107.000000 
	C1.000000,106.250000 1.000000,105.500000 1.363960,104.193275 
	C2.309594,99.700691 2.643564,95.709320 3.511140,91.837524 
	C12.492070,51.757652 35.910000,23.805828 74.225159,8.810035 
	C83.661514,5.116828 93.412888,1.773264 103.947289,2.803029 
	C104.566856,2.863593 105.312843,1.630878 106.000000,0.999999 
	C110.024544,1.000000 114.049088,1.000000 118.746689,1.363200 
	C146.072021,2.925682 169.102646,13.163713 188.808228,30.667917 
	C205.380402,45.388767 216.483932,63.781860 222.005844,85.361656 
	C223.499664,91.199539 224.677261,97.118340 226.000000,103.000000 
M150.651932,160.429764 
	C146.921768,156.933456 143.191620,153.437149 139.168030,149.302795 
	C131.901474,141.965210 124.681618,134.580612 117.356201,127.302254 
	C108.738235,118.739670 100.028709,110.269234 91.013596,101.173401 
	C75.880753,85.941574 60.749287,70.708382 45.599178,55.493740 
	C45.412746,55.306511 44.987183,55.357399 44.534935,55.270592 
	C29.925776,72.836441 22.527128,93.202324 23.487780,115.943359 
	C24.657257,143.627777 35.646164,166.966660 57.849880,184.286209 
	C90.813637,209.998901 137.429001,211.570023 172.143967,181.790451 
	C168.270538,178.146744 164.427780,174.531906 160.399521,170.333893 
	C157.232315,167.238388 154.065094,164.142883 150.651932,160.429764 
M84.744492,62.903934 
	C87.677864,65.272522 90.611229,67.641106 93.947952,70.149803 
	C94.289078,70.588028 94.630203,71.026253 94.325127,72.073318 
	C95.148209,72.715004 95.971291,73.356682 97.131935,74.617447 
	C100.965851,78.629761 104.799767,82.642067 108.943031,87.185966 
	C110.326981,88.567429 111.710930,89.948891 113.488449,91.819527 
	C116.963600,95.218689 120.438744,98.617859 124.128716,102.660393 
	C133.804092,112.268578 143.479462,121.876755 153.790909,131.962402 
	C165.166260,142.827682 176.541611,153.692947 187.824768,164.470154 
	C212.339569,131.210373 209.775833,78.767891 173.830414,46.311695 
	C139.175278,15.020535 89.883766,18.078548 61.442730,40.342117 
	C69.163673,47.687340 76.822647,54.973602 84.744492,62.903934 
z"/>
<path fill="#FFFEFE" opacity="1.000000" stroke="none" 
	d="
M226.000000,102.531342 
	C224.677261,97.118340 223.499664,91.199539 222.005844,85.361656 
	C216.483932,63.781860 205.380402,45.388767 188.808228,30.667917 
	C169.102646,13.163713 146.072021,2.925682 119.209869,1.363200 
	C154.591858,1.000000 190.183716,1.000000 226.000000,1.000000 
	C226.000000,34.687229 226.000000,68.374954 226.000000,102.531342 
z"/>
<path fill="#FFFEFE" opacity="1.000000" stroke="none" 
	d="
M105.531342,0.999999 
	C105.312843,1.630878 104.566856,2.863593 103.947289,2.803029 
	C93.412888,1.773264 83.661514,5.116828 74.225159,8.810035 
	C35.910000,23.805828 12.492070,51.757652 3.511140,91.837524 
	C2.643564,95.709320 2.309594,99.700691 1.363960,103.818275 
	C1.000000,69.739021 1.000000,35.478039 1.000000,1.000000 
	C35.687260,1.000000 70.374969,1.000000 105.531342,0.999999 
z"/>
<path fill="#FFFEFE" opacity="1.000000" stroke="none" 
	d="
M0.999999,123.468658 
	C2.617732,130.354736 3.839026,137.823593 5.918131,145.045502 
	C18.548063,188.916443 56.539642,220.673401 101.805008,225.645996 
	C68.405678,226.000000 34.811352,226.000000 1.000000,226.000000 
	C1.000000,191.979416 1.000000,157.958359 0.999999,123.468658 
z"/>
<path fill="#FFFEFE" opacity="1.000000" stroke="none" 
	d="
M125.468658,226.000000 
	C132.481339,224.232742 140.196808,223.129959 147.405899,220.589996 
	C193.015991,204.520355 218.752731,172.166870 225.637283,124.182159 
	C226.000000,157.926575 226.000000,191.853149 226.000000,226.000000 
	C192.646103,226.000000 159.291702,226.000000 125.468658,226.000000 
z"/>
<path fill="#E57C79" opacity="1.000000" stroke="none" 
	d="
M225.158051,118.061638 
	C225.111115,115.325684 225.064194,112.589729 225.293930,109.414536 
	C225.570587,108.975296 226.000000,109.000000 226.000000,109.000000 
	C226.000000,111.700630 226.000000,114.401253 225.789749,117.569557 
	C225.579498,118.037231 225.158051,118.061638 225.158051,118.061638 
z"/>
<path fill="#E5807D" opacity="1.000000" stroke="none" 
	d="
M1.848980,109.959839 
	C1.886840,112.356720 1.924700,114.753593 1.693161,117.587418 
	C1.423761,118.024361 1.000000,118.000000 1.000000,118.000000 
	C1.000000,115.629440 1.000000,113.258888 1.212168,110.432495 
	C1.424336,109.976662 1.848980,109.959839 1.848980,109.959839 
z"/>
<path fill="#EA9D9B" opacity="1.000000" stroke="none" 
	d="
M225.113892,118.428650 
	C225.158051,118.061638 225.579498,118.037231 225.789749,118.018616 
	C226.000000,119.066673 226.000000,120.133339 226.000000,121.600006 
	C225.689911,120.931885 225.379807,119.863770 225.113892,118.428650 
z"/>
<path fill="#E99795" opacity="1.000000" stroke="none" 
	d="
M226.000000,108.625000 
	C226.000000,109.000000 225.570587,108.975296 225.356262,108.963875 
	C225.224030,108.067490 225.306137,107.182518 225.694122,106.148773 
	C226.000000,106.750000 226.000000,107.500000 226.000000,108.625000 
z"/>
<path fill="#E99694" opacity="1.000000" stroke="none" 
	d="
M1.896898,109.620956 
	C1.848980,109.959839 1.424336,109.976662 1.212168,109.988327 
	C1.000000,109.250000 1.000000,108.500000 1.000000,107.375000 
	C1.314938,107.760696 1.629877,108.521385 1.896898,109.620956 
z"/>
<path fill="#E99795" opacity="1.000000" stroke="none" 
	d="
M1.000000,118.375000 
	C1.000000,118.000000 1.423761,118.024361 1.635349,118.033287 
	C1.768765,118.928574 1.690594,119.814941 1.306212,120.850647 
	C1.000000,120.250000 1.000000,119.500000 1.000000,118.375000 
z"/>
<path fill="#FEFDFD" opacity="1.000000" stroke="none" 
	d="
M123.913887,102.017029 
	C120.438744,98.617859 116.963600,95.218689 113.622955,91.444565 
	C122.352859,85.333015 122.977608,80.864670 116.280357,72.938522 
	C115.639000,72.179482 114.973564,71.435684 114.267052,70.737701 
	C111.422058,67.927025 109.255219,65.279900 113.907089,61.942120 
	C114.740540,61.344112 114.824570,58.331585 114.068916,57.317051 
	C113.450722,56.487083 110.700455,56.322498 109.525215,56.983212 
	C103.000381,60.651428 101.902054,66.298782 106.313957,72.336678 
	C107.580093,74.069466 109.012840,75.712196 110.553741,77.205833 
	C113.618500,80.176559 114.590591,82.841209 109.989365,85.240173 
	C109.440811,85.526176 109.081001,86.174179 108.633698,86.654373 
	C104.799767,82.642067 100.965851,78.629761 96.953720,73.979889 
	C96.174110,72.716377 95.572716,72.090431 94.971329,71.464478 
	C94.630203,71.026253 94.289078,70.588028 93.522858,69.784348 
	C90.718193,66.993126 90.375008,64.992836 93.441010,62.515007 
	C94.515640,61.646530 94.079292,58.908413 94.332916,57.024040 
	C92.578766,57.075417 90.462090,56.529186 89.157036,57.320873 
	C87.287750,58.454842 86.011238,60.565968 84.481621,62.259869 
	C76.822647,54.973602 69.163673,47.687340 61.442730,40.342117 
	C89.883766,18.078548 139.175278,15.020535 173.830414,46.311695 
	C209.775833,78.767891 212.339569,131.210373 187.824768,164.470154 
	C176.541611,153.692947 165.166260,142.827682 153.904007,131.693390 
	C163.328522,130.769608 166.654572,127.258575 166.709686,117.948364 
	C166.721497,115.955078 166.730698,113.939995 166.469666,111.970932 
	C165.663620,105.890167 161.554321,102.103333 155.374405,102.032761 
	C144.888870,101.913010 134.400864,102.010719 123.913887,102.017029 
M130.623062,91.912201 
	C140.778931,89.304054 143.366898,81.909164 136.915573,73.888313 
	C135.980591,72.725853 135.009155,71.583191 133.963196,70.521378 
	C131.260300,67.777473 129.212006,65.241890 133.711563,62.069916 
	C134.583435,61.455299 134.591705,58.777317 134.086166,57.381508 
	C133.810806,56.621223 131.408661,55.921207 130.326248,56.280418 
	C124.085815,58.351364 121.691704,65.344025 125.302505,70.972443 
	C126.900970,73.464066 128.936447,75.723434 131.024216,77.841072 
	C133.737457,80.593109 133.923050,82.770752 130.385498,84.926285 
	C127.239494,86.843224 126.862320,89.158272 130.623062,91.912201 
z"/>
<path fill="#FEFDFD" opacity="1.000000" stroke="none" 
	d="
M160.585037,170.917084 
	C164.427780,174.531906 168.270538,178.146744 172.143967,181.790451 
	C137.429001,211.570023 90.813637,209.998901 57.849880,184.286209 
	C35.646164,166.966660 24.657257,143.627777 23.487780,115.943359 
	C22.527128,93.202324 29.925776,72.836441 44.534935,55.270592 
	C44.987183,55.357399 45.412746,55.306511 45.599178,55.493740 
	C60.749287,70.708382 75.880753,85.941574 90.683449,101.521515 
	C85.618210,101.869637 80.883110,101.869637 76.055290,101.869637 
	C76.055290,111.883095 75.868256,121.194542 76.109550,130.494888 
	C76.336525,139.243103 79.358353,147.083710 85.419182,153.491684 
	C87.942543,156.159607 90.970757,158.350037 94.327278,161.237503 
	C84.916245,161.237503 76.157974,161.237335 67.399712,161.237564 
	C59.946228,161.237762 59.929844,161.239029 60.409824,168.586349 
	C60.460236,169.358017 60.846935,170.107727 61.092628,170.917084 
	C94.381561,170.917084 127.483299,170.917084 160.585037,170.917084 
z"/>
<path fill="#030303" opacity="1.000000" stroke="none" 
	d="
M160.492279,170.625488 
	C127.483299,170.917084 94.381561,170.917084 61.092628,170.917084 
	C60.846935,170.107727 60.460236,169.358017 60.409824,168.586349 
	C59.929844,161.239029 59.946228,161.237762 67.399712,161.237564 
	C76.157974,161.237335 84.916245,161.237503 94.327278,161.237503 
	C90.970757,158.350037 87.942543,156.159607 85.419182,153.491684 
	C79.358353,147.083710 76.336525,139.243103 76.109550,130.494888 
	C75.868256,121.194542 76.055290,111.883095 76.055290,101.869637 
	C80.883110,101.869637 85.618210,101.869637 90.856094,101.814240 
	C100.028709,110.269234 108.738235,118.739670 117.356201,127.302254 
	C124.681618,134.580612 131.901474,141.965210 139.120987,149.933197 
	C135.542389,154.053452 132.010834,157.543289 128.464874,161.047379 
	C135.829437,161.047379 143.363663,161.047379 150.897888,161.047379 
	C154.065094,164.142883 157.232315,167.238388 160.492279,170.625488 
z"/>
<path fill="#030303" opacity="1.000000" stroke="none" 
	d="
M124.021301,102.338715 
	C134.400864,102.010719 144.888870,101.913010 155.374405,102.032761 
	C161.554321,102.103333 165.663620,105.890167 166.469666,111.970932 
	C166.730698,113.939995 166.721497,115.955078 166.709686,117.948364 
	C166.654572,127.258575 163.328522,130.769608 153.585968,131.454666 
	C143.479462,121.876755 133.804092,112.268578 124.021301,102.338715 
M159.879440,117.377701 
	C159.863068,109.016853 158.881790,108.179382 150.601746,109.474785 
	C150.601746,114.520950 150.601746,119.567108 150.601746,124.568344 
	C158.358124,125.178276 159.469482,124.385590 159.879440,117.377701 
z"/>
<path fill="#080808" opacity="1.000000" stroke="none" 
	d="
M108.788361,86.920174 
	C109.081001,86.174179 109.440811,85.526176 109.989365,85.240173 
	C114.590591,82.841209 113.618500,80.176559 110.553741,77.205833 
	C109.012840,75.712196 107.580093,74.069466 106.313957,72.336678 
	C101.902054,66.298782 103.000381,60.651428 109.525215,56.983212 
	C110.700455,56.322498 113.450722,56.487083 114.068916,57.317051 
	C114.824570,58.331585 114.740540,61.344112 113.907089,61.942120 
	C109.255219,65.279900 111.422058,67.927025 114.267052,70.737701 
	C114.973564,71.435684 115.639000,72.179482 116.280357,72.938522 
	C122.977608,80.864670 122.352859,85.333015 113.426163,91.199982 
	C111.710930,89.948891 110.326981,88.567429 108.788361,86.920174 
z"/>
<path fill="#FAF5F5" opacity="1.000000" stroke="none" 
	d="
M150.774902,160.738571 
	C143.363663,161.047379 135.829437,161.047379 128.464874,161.047379 
	C132.010834,157.543289 135.542389,154.053452 139.267700,150.252213 
	C143.191620,153.437149 146.921768,156.933456 150.774902,160.738571 
z"/>
<path fill="#090909" opacity="1.000000" stroke="none" 
	d="
M84.613052,62.581902 
	C86.011238,60.565968 87.287750,58.454842 89.157036,57.320873 
	C90.462090,56.529186 92.578766,57.075417 94.332916,57.024040 
	C94.079292,58.908413 94.515640,61.646530 93.441010,62.515007 
	C90.375008,64.992836 90.718193,66.993126 93.321182,69.714294 
	C90.611229,67.641106 87.677864,65.272522 84.613052,62.581902 
z"/>
<path fill="#090909" opacity="1.000000" stroke="none" 
	d="
M94.648224,71.768898 
	C95.572716,72.090431 96.174110,72.716377 96.784943,73.670349 
	C95.971291,73.356682 95.148209,72.715004 94.648224,71.768898 
z"/>
<path fill="#070707" opacity="1.000000" stroke="none" 
	d="
M130.274185,91.759308 
	C126.862320,89.158272 127.239494,86.843224 130.385498,84.926285 
	C133.923050,82.770752 133.737457,80.593109 131.024216,77.841072 
	C128.936447,75.723434 126.900970,73.464066 125.302505,70.972443 
	C121.691704,65.344025 124.085815,58.351364 130.326248,56.280418 
	C131.408661,55.921207 133.810806,56.621223 134.086166,57.381508 
	C134.591705,58.777317 134.583435,61.455299 133.711563,62.069916 
	C129.212006,65.241890 131.260300,67.777473 133.963196,70.521378 
	C135.009155,71.583191 135.980591,72.725853 136.915573,73.888313 
	C143.366898,81.909164 140.778931,89.304054 130.274185,91.759308 
z"/>
<path fill="#EEEEEE" opacity="1.000000" stroke="none" 
	d="
M159.879425,117.815178 
	C159.469482,124.385590 158.358124,125.178276 150.601746,124.568344 
	C150.601746,119.567108 150.601746,114.520950 150.604797,109.469795 
	C158.881790,108.179382 159.863068,109.016853 159.879425,117.815178 
z"/>
</svg>